<?xml version="1.0" encoding="UTF-8"?>
<svg id="Capa_2" data-name="Capa 2" xmlns="http://www.w3.org/2000/svg" viewBox="0 0 283.01 142.45">
  <defs>
    <style>
      .cls-1 {
        fill: #f540ff;
      }

      .cls-2 {
        fill: #001f6d;
      }
    </style>
  </defs>
  <g id="Layer_1" data-name="Layer 1">
    <g>
      <g>
        <g>
          <g>
            <path class="cls-2" d="M13.58,91.16v4.24c0,10.08,1.75,13.29,7.01,13.29,4.09,0,6.13-3.36,6.13-9.64s-1.61-10.22-8.33-19.13l-6.72-9.93C3.36,57.42.58,50.7.58,42.08c0-12.85,7.74-21.03,20.01-21.03,9.2,0,15.92,5.26,17.82,14.17.73,3.65.73,4.09.73,12.12l-13.29,1.31c0-4.97-.15-6.72-.44-8.76-.44-3.94-2.63-6.13-5.7-6.13-3.65,0-5.7,3.21-5.7,9.06s.58,7.3,9.64,20.89l6.86,9.93c6.28,9.2,9.79,19.13,9.79,27.46,0,13-7.16,20.3-19.86,20.3-7.3,0-12.42-2.34-16.21-7.45-3.21-4.38-4.24-8.47-4.24-16.94,0-2.04,0-2.92.15-5.26l13.44-.58Z"/>
            <path class="cls-2" d="M65.12,75.24v44.69h-13.58V22.51h13.58v40.02h11.1V22.51h13.58v97.42h-13.58v-44.69h-11.1Z"/>
          </g>
          <g>
            <path class="cls-2" d="M205.05,35.22h-12.71v-12.71h39.58v12.71h-13.29v84.71h-13.58V35.22Z"/>
            <path class="cls-2" d="M181.23,22.51v12.71h-19.28v27.31h13.44v12.71h-13.44v44.69h-13.58V22.51h32.86Z"/>
          </g>
        </g>
        <g>
          <path class="cls-2" d="M248.96,93.57c0,.42-.07.79-.2,1.14-.14.34-.34.63-.61.87-.27.24-.62.42-1.02.55s-.88.19-1.42.19h-8v-5.41h8c1.09,0,1.9.23,2.45.7.55.47.82,1.12.82,1.96M255.24,93.54c0-1.38-.22-2.62-.66-3.72-.44-1.1-1.11-2.03-2.02-2.79-.9-.76-2.04-1.35-3.41-1.75-1.37-.4-2.99-.61-4.86-.61h-12.83v24.33h6.24v-6.46l6.62.02c1.87,0,3.49-.23,4.86-.68,1.37-.45,2.5-1.08,3.4-1.88.9-.8,1.56-1.76,2-2.86.44-1.1.65-2.3.65-3.6"/>
          <polygon class="cls-2" points="257.26 84.67 257.26 109 263.5 109 263.5 94.43 277.02 109 283.01 109 283.01 106.68 263.26 84.67 257.26 84.67"/>
          <path class="cls-1" d="M283,84.67h-12.19v4.8h7.4v7.39h4.8v-12.19h-.01ZM282.14,88.61v7.38h-3.09v-7.38h-7.38v-3.09h10.47v3.09Z"/>
        </g>
        <g>
          <path class="cls-2" d="M149.62,142.11v-14.86h1.8v13.27h6.91v1.6h-8.71Z"/>
          <path class="cls-2" d="M162.99,142.11h-1.89l5.46-14.86h1.86l5.46,14.86h-1.89l-4.44-12.51h-.12l-4.44,12.51ZM163.69,136.31h7.6v1.6h-7.6v-1.6Z"/>
          <path class="cls-2" d="M176.65,128.85v-1.6h11.15v1.6h-4.67v13.26h-1.8v-13.26h-4.67Z"/>
          <path class="cls-2" d="M192.46,142.11h-1.89l5.46-14.86h1.86l5.46,14.86h-1.89l-4.44-12.51h-.12l-4.44,12.51ZM193.16,136.31h7.6v1.6h-7.6v-1.6Z"/>
          <path class="cls-2" d="M206.93,127.25h2.15l5.05,12.34h.17l5.05-12.34h2.15v14.86h-1.68v-11.29h-.14l-4.64,11.29h-1.62l-4.64-11.29h-.14v11.29h-1.68v-14.86Z"/>
        </g>
      </g>
      <path class="cls-1" d="M95.63,142.45v-4.38c9.25,0,14.46-3.36,14.46-10.09V17.26c0-8.58-4.82-12.87-14.46-12.87V0h46.47v4.38c-8.96,0-14.02,4.29-14.02,12.87v110.72c0,6.73,4.67,10.09,14.02,10.09v4.38h-46.47Z"/>
    </g>
  </g>
</svg>